<mxfile host="app.diagrams.net" agent="Mozilla/5.0 (Windows NT 10.0; Win64; x64) AppleWebKit/537.36 (KHTML, like Gecko) Chrome/133.0.0.0 Safari/537.36" version="26.0.14">
  <diagram name="Página-1" id="2wIiWeFKRwXBKU0tzXtS">
    <mxGraphModel dx="794" dy="454" grid="1" gridSize="10" guides="1" tooltips="1" connect="1" arrows="1" fold="1" page="1" pageScale="1" pageWidth="827" pageHeight="1169" math="0" shadow="0">
      <root>
        <mxCell id="0" />
        <mxCell id="1" parent="0" />
        <mxCell id="B1PQpcHcP7HYLzNKOx0h-50" style="edgeStyle=orthogonalEdgeStyle;rounded=0;orthogonalLoop=1;jettySize=auto;html=1;exitX=1;exitY=0.5;exitDx=0;exitDy=0;entryX=0;entryY=0.5;entryDx=0;entryDy=0;" edge="1" parent="1" source="B1PQpcHcP7HYLzNKOx0h-1" target="B1PQpcHcP7HYLzNKOx0h-7">
          <mxGeometry relative="1" as="geometry" />
        </mxCell>
        <mxCell id="B1PQpcHcP7HYLzNKOx0h-1" value="" style="rounded=0;whiteSpace=wrap;html=1;" vertex="1" parent="1">
          <mxGeometry x="380" y="125" width="120" height="60" as="geometry" />
        </mxCell>
        <mxCell id="B1PQpcHcP7HYLzNKOx0h-36" style="edgeStyle=orthogonalEdgeStyle;rounded=0;orthogonalLoop=1;jettySize=auto;html=1;exitX=1;exitY=0.5;exitDx=0;exitDy=0;entryX=0;entryY=0.5;entryDx=0;entryDy=0;" edge="1" parent="1" source="B1PQpcHcP7HYLzNKOx0h-2" target="B1PQpcHcP7HYLzNKOx0h-6">
          <mxGeometry relative="1" as="geometry" />
        </mxCell>
        <mxCell id="B1PQpcHcP7HYLzNKOx0h-2" value="" style="rounded=0;whiteSpace=wrap;html=1;" vertex="1" parent="1">
          <mxGeometry x="90" y="125" width="120" height="60" as="geometry" />
        </mxCell>
        <mxCell id="B1PQpcHcP7HYLzNKOx0h-60" style="edgeStyle=orthogonalEdgeStyle;rounded=0;orthogonalLoop=1;jettySize=auto;html=1;exitX=0.25;exitY=1;exitDx=0;exitDy=0;" edge="1" parent="1" source="B1PQpcHcP7HYLzNKOx0h-3" target="B1PQpcHcP7HYLzNKOx0h-30">
          <mxGeometry relative="1" as="geometry" />
        </mxCell>
        <mxCell id="B1PQpcHcP7HYLzNKOx0h-3" value="" style="rounded=0;whiteSpace=wrap;html=1;" vertex="1" parent="1">
          <mxGeometry x="680" y="125" width="120" height="60" as="geometry" />
        </mxCell>
        <mxCell id="B1PQpcHcP7HYLzNKOx0h-44" style="edgeStyle=orthogonalEdgeStyle;rounded=0;orthogonalLoop=1;jettySize=auto;html=1;exitX=1;exitY=0.5;exitDx=0;exitDy=0;entryX=0;entryY=0.5;entryDx=0;entryDy=0;" edge="1" parent="1" source="B1PQpcHcP7HYLzNKOx0h-6" target="B1PQpcHcP7HYLzNKOx0h-1">
          <mxGeometry relative="1" as="geometry">
            <mxPoint x="350" y="155" as="targetPoint" />
            <Array as="points" />
          </mxGeometry>
        </mxCell>
        <mxCell id="B1PQpcHcP7HYLzNKOx0h-6" value="" style="rhombus;whiteSpace=wrap;html=1;" vertex="1" parent="1">
          <mxGeometry x="260" y="115" width="80" height="80" as="geometry" />
        </mxCell>
        <mxCell id="B1PQpcHcP7HYLzNKOx0h-51" style="edgeStyle=orthogonalEdgeStyle;rounded=0;orthogonalLoop=1;jettySize=auto;html=1;exitX=1;exitY=0.5;exitDx=0;exitDy=0;entryX=0;entryY=0.5;entryDx=0;entryDy=0;" edge="1" parent="1" source="B1PQpcHcP7HYLzNKOx0h-7" target="B1PQpcHcP7HYLzNKOx0h-3">
          <mxGeometry relative="1" as="geometry" />
        </mxCell>
        <mxCell id="B1PQpcHcP7HYLzNKOx0h-7" value="" style="rhombus;whiteSpace=wrap;html=1;" vertex="1" parent="1">
          <mxGeometry x="550" y="115" width="80" height="80" as="geometry" />
        </mxCell>
        <mxCell id="B1PQpcHcP7HYLzNKOx0h-9" value="clientes" style="text;html=1;align=center;verticalAlign=middle;whiteSpace=wrap;rounded=0;" vertex="1" parent="1">
          <mxGeometry x="120" y="140" width="60" height="30" as="geometry" />
        </mxCell>
        <mxCell id="B1PQpcHcP7HYLzNKOx0h-10" value="pedidos" style="text;html=1;align=center;verticalAlign=middle;whiteSpace=wrap;rounded=0;" vertex="1" parent="1">
          <mxGeometry x="410" y="140" width="60" height="30" as="geometry" />
        </mxCell>
        <mxCell id="B1PQpcHcP7HYLzNKOx0h-14" value="produtos" style="text;html=1;align=center;verticalAlign=middle;whiteSpace=wrap;rounded=0;" vertex="1" parent="1">
          <mxGeometry x="710" y="140" width="60" height="30" as="geometry" />
        </mxCell>
        <mxCell id="B1PQpcHcP7HYLzNKOx0h-35" style="edgeStyle=orthogonalEdgeStyle;rounded=0;orthogonalLoop=1;jettySize=auto;html=1;exitX=0.5;exitY=1;exitDx=0;exitDy=0;entryX=0.5;entryY=0;entryDx=0;entryDy=0;" edge="1" parent="1" source="B1PQpcHcP7HYLzNKOx0h-19" target="B1PQpcHcP7HYLzNKOx0h-2">
          <mxGeometry relative="1" as="geometry" />
        </mxCell>
        <mxCell id="B1PQpcHcP7HYLzNKOx0h-19" value="idclientes&lt;div&gt;&lt;br&gt;&lt;/div&gt;" style="ellipse;whiteSpace=wrap;html=1;align=center;" vertex="1" parent="1">
          <mxGeometry x="100" y="50" width="100" height="40" as="geometry" />
        </mxCell>
        <mxCell id="B1PQpcHcP7HYLzNKOx0h-21" value="nome" style="ellipse;whiteSpace=wrap;html=1;align=center;" vertex="1" parent="1">
          <mxGeometry x="40" y="240" width="100" height="40" as="geometry" />
        </mxCell>
        <mxCell id="B1PQpcHcP7HYLzNKOx0h-23" value="e-mail" style="ellipse;whiteSpace=wrap;html=1;align=center;" vertex="1" parent="1">
          <mxGeometry x="160" y="240" width="100" height="40" as="geometry" />
        </mxCell>
        <mxCell id="B1PQpcHcP7HYLzNKOx0h-53" style="edgeStyle=orthogonalEdgeStyle;rounded=0;orthogonalLoop=1;jettySize=auto;html=1;exitX=0.5;exitY=1;exitDx=0;exitDy=0;entryX=0.5;entryY=0;entryDx=0;entryDy=0;" edge="1" parent="1" source="B1PQpcHcP7HYLzNKOx0h-26" target="B1PQpcHcP7HYLzNKOx0h-1">
          <mxGeometry relative="1" as="geometry" />
        </mxCell>
        <mxCell id="B1PQpcHcP7HYLzNKOx0h-26" value="idpedido" style="ellipse;whiteSpace=wrap;html=1;align=center;" vertex="1" parent="1">
          <mxGeometry x="390" y="50" width="100" height="40" as="geometry" />
        </mxCell>
        <mxCell id="B1PQpcHcP7HYLzNKOx0h-27" value="idclientes" style="ellipse;whiteSpace=wrap;html=1;align=center;" vertex="1" parent="1">
          <mxGeometry x="340" y="240" width="100" height="40" as="geometry" />
        </mxCell>
        <mxCell id="B1PQpcHcP7HYLzNKOx0h-28" value="idproduto" style="ellipse;shape=doubleEllipse;margin=3;whiteSpace=wrap;html=1;align=center;" vertex="1" parent="1">
          <mxGeometry x="450" y="240" width="100" height="40" as="geometry" />
        </mxCell>
        <mxCell id="B1PQpcHcP7HYLzNKOx0h-52" style="edgeStyle=orthogonalEdgeStyle;rounded=0;orthogonalLoop=1;jettySize=auto;html=1;exitX=0.5;exitY=1;exitDx=0;exitDy=0;entryX=0.5;entryY=0;entryDx=0;entryDy=0;" edge="1" parent="1" source="B1PQpcHcP7HYLzNKOx0h-29" target="B1PQpcHcP7HYLzNKOx0h-3">
          <mxGeometry relative="1" as="geometry" />
        </mxCell>
        <mxCell id="B1PQpcHcP7HYLzNKOx0h-29" value="idproduto" style="ellipse;whiteSpace=wrap;html=1;align=center;" vertex="1" parent="1">
          <mxGeometry x="690" y="50" width="100" height="40" as="geometry" />
        </mxCell>
        <mxCell id="B1PQpcHcP7HYLzNKOx0h-30" value="valor" style="ellipse;whiteSpace=wrap;html=1;align=center;" vertex="1" parent="1">
          <mxGeometry x="620" y="240" width="100" height="40" as="geometry" />
        </mxCell>
        <mxCell id="B1PQpcHcP7HYLzNKOx0h-31" value="marca" style="ellipse;whiteSpace=wrap;html=1;align=center;" vertex="1" parent="1">
          <mxGeometry x="730" y="240" width="100" height="40" as="geometry" />
        </mxCell>
        <mxCell id="B1PQpcHcP7HYLzNKOx0h-56" value="&lt;h1 style=&quot;margin-top: 0px;&quot;&gt;Diagrama ER - Projeto Loja&lt;/h1&gt;&lt;p&gt;Desenvolvido por João vitor costa de oliveira&lt;/p&gt;" style="text;html=1;whiteSpace=wrap;overflow=hidden;rounded=0;" vertex="1" parent="1">
          <mxGeometry x="40" y="320" width="420" height="120" as="geometry" />
        </mxCell>
        <mxCell id="B1PQpcHcP7HYLzNKOx0h-61" style="edgeStyle=orthogonalEdgeStyle;rounded=0;orthogonalLoop=1;jettySize=auto;html=1;exitX=0.75;exitY=1;exitDx=0;exitDy=0;entryX=0.7;entryY=0;entryDx=0;entryDy=0;entryPerimeter=0;" edge="1" parent="1" source="B1PQpcHcP7HYLzNKOx0h-3" target="B1PQpcHcP7HYLzNKOx0h-31">
          <mxGeometry relative="1" as="geometry" />
        </mxCell>
        <mxCell id="B1PQpcHcP7HYLzNKOx0h-63" style="edgeStyle=orthogonalEdgeStyle;rounded=0;orthogonalLoop=1;jettySize=auto;html=1;exitX=0.25;exitY=1;exitDx=0;exitDy=0;entryX=0.287;entryY=0.05;entryDx=0;entryDy=0;entryPerimeter=0;" edge="1" parent="1" source="B1PQpcHcP7HYLzNKOx0h-1" target="B1PQpcHcP7HYLzNKOx0h-27">
          <mxGeometry relative="1" as="geometry" />
        </mxCell>
        <mxCell id="B1PQpcHcP7HYLzNKOx0h-64" style="edgeStyle=orthogonalEdgeStyle;rounded=0;orthogonalLoop=1;jettySize=auto;html=1;exitX=0.75;exitY=1;exitDx=0;exitDy=0;entryX=0.593;entryY=-0.083;entryDx=0;entryDy=0;entryPerimeter=0;" edge="1" parent="1" source="B1PQpcHcP7HYLzNKOx0h-1" target="B1PQpcHcP7HYLzNKOx0h-28">
          <mxGeometry relative="1" as="geometry" />
        </mxCell>
        <mxCell id="B1PQpcHcP7HYLzNKOx0h-65" style="edgeStyle=orthogonalEdgeStyle;rounded=0;orthogonalLoop=1;jettySize=auto;html=1;exitX=0.25;exitY=1;exitDx=0;exitDy=0;entryX=0.353;entryY=-0.05;entryDx=0;entryDy=0;entryPerimeter=0;" edge="1" parent="1" source="B1PQpcHcP7HYLzNKOx0h-2" target="B1PQpcHcP7HYLzNKOx0h-21">
          <mxGeometry relative="1" as="geometry" />
        </mxCell>
        <mxCell id="B1PQpcHcP7HYLzNKOx0h-66" style="edgeStyle=orthogonalEdgeStyle;rounded=0;orthogonalLoop=1;jettySize=auto;html=1;exitX=0.75;exitY=1;exitDx=0;exitDy=0;entryX=0.573;entryY=-0.067;entryDx=0;entryDy=0;entryPerimeter=0;" edge="1" parent="1" source="B1PQpcHcP7HYLzNKOx0h-2" target="B1PQpcHcP7HYLzNKOx0h-23">
          <mxGeometry relative="1" as="geometry" />
        </mxCell>
      </root>
    </mxGraphModel>
  </diagram>
</mxfile>
